HIERARCHY
ROOT Hips
{
	OFFSET 0.000000 0.000000 0.000000
	CHANNELS 6 Xposition Yposition Zposition Xrotation Yrotation Zrotation
	JOINT LeftUpLeg_virtual
	{
		OFFSET 0.000000 0.000000 0.000000
		CHANNELS 3 Xrotation Yrotation Zrotation
		JOINT LeftUpLeg
		{
			OFFSET 13.026900 -6.336304 -1.092800
			CHANNELS 3 Xrotation Yrotation Zrotation
			JOINT LeftLeg
			{
				OFFSET 0.524474 -46.096886 9.782700
				CHANNELS 3 Xrotation Yrotation Zrotation
				JOINT LeftFoot
				{
					OFFSET -0.524474 -53.427422 -12.948200
					CHANNELS 3 Xrotation Yrotation Zrotation
					JOINT LeftToeBase
					{
						OFFSET 0.192200 -14.009700 16.364100
						CHANNELS 3 Xrotation Yrotation Zrotation
						JOINT LeftToe_End
						{
							OFFSET -1.784700 -0.561700 9.474800
							CHANNELS 3 Xrotation Yrotation Zrotation
							End Site
							{
								OFFSET 0 0 0
							}
						}
					}
				}
			}
		}
	}
	JOINT RightUpLeg_virtual
	{
		OFFSET 0.000000 0.000000 0.000000
		CHANNELS 3 Xrotation Yrotation Zrotation
		JOINT RightUpLeg
		{
			OFFSET -12.883000 -6.336304 -1.092800
			CHANNELS 3 Xrotation Yrotation Zrotation
			JOINT RightLeg
			{
				OFFSET -0.524587 -46.096825 9.782800
				CHANNELS 3 Xrotation Yrotation Zrotation
				JOINT RightFoot
				{
					OFFSET 0.524587 -53.427383 -12.948300
					CHANNELS 3 Xrotation Yrotation Zrotation
					JOINT RightToeBase
					{
						OFFSET -0.192200 -14.009700 16.364100
						CHANNELS 3 Xrotation Yrotation Zrotation
						JOINT RightToe_End
						{
							OFFSET 1.784700 -0.561700 9.474800
							CHANNELS 3 Xrotation Yrotation Zrotation
							End Site
							{
								OFFSET 0 0 0
							}
						}
					}
				}
			}
		}
	}
	JOINT Spine_virtual
	{
		OFFSET 0.000000 0.000000 0.000000
		CHANNELS 3 Xrotation Yrotation Zrotation
		JOINT Spine
		{
			OFFSET 0.072000 7.257294 -0.789700
			CHANNELS 3 Xrotation Yrotation Zrotation
			JOINT Spine1
			{
				OFFSET 0.000000 12.508769 -0.658067
				CHANNELS 3 Xrotation Yrotation Zrotation
				JOINT Spine1_split
				{
					OFFSET 0.000000 12.508769 -0.658067
					CHANNELS 3 Xrotation Yrotation Zrotation
					JOINT Spine2
					{
						OFFSET 0.000000 12.508769 -0.658067
						CHANNELS 3 Xrotation Yrotation Zrotation
						JOINT Neck_virtual
						{
							OFFSET 0.000000 0.000000 0.000000
							CHANNELS 3 Xrotation Yrotation Zrotation
							JOINT Neck
							{
								OFFSET 0.000000 14.033295 7.520400
								CHANNELS 3 Xrotation Yrotation Zrotation
								JOINT Head
								{
									OFFSET 0.000000 8.198502 5.703100
									CHANNELS 3 Xrotation Yrotation Zrotation
									JOINT HeadTop_End
									{
										OFFSET 0.000000 17.760803 13.332701
										CHANNELS 3 Xrotation Yrotation Zrotation
										End Site
										{
											OFFSET 0 0 0
										}
									}
								}
							}
						}
						JOINT LeftShoulder_virtual
						{
							OFFSET 0.000000 0.000000 0.000000
							CHANNELS 3 Xrotation Yrotation Zrotation
							JOINT LeftShoulder
							{
								OFFSET 6.292450 5.785301 -0.669000
								CHANNELS 3 Xrotation Yrotation Zrotation
								JOINT LeftShoulder_split
								{
									OFFSET 6.292450 5.785301 -0.669000
									CHANNELS 3 Xrotation Yrotation Zrotation
									JOINT LeftArm
									{
										OFFSET 13.907140 -6.093903 1.965100
										CHANNELS 3 Xrotation Yrotation Zrotation
										JOINT LeftForeArm
										{
											OFFSET 34.140198 0.000000 0.000000
											CHANNELS 3 Xrotation Yrotation Zrotation
											JOINT LeftHand
											{
												OFFSET 40.960209 0.000000 0.000000
												CHANNELS 3 Xrotation Yrotation Zrotation
												End Site
												{
													OFFSET 0 0 0
												}
											}
										}
									}
								}
							}
						}
						JOINT RightShoulder_virtual
						{
							OFFSET 0.000000 0.000000 0.000000
							CHANNELS 3 Xrotation Yrotation Zrotation
							JOINT RightShoulder
							{
								OFFSET -6.292450 5.785301 -0.669000
								CHANNELS 3 Xrotation Yrotation Zrotation
								JOINT RightShoulder_split
								{
									OFFSET -6.292450 5.785301 -0.669000
									CHANNELS 3 Xrotation Yrotation Zrotation
									JOINT RightArm
									{
										OFFSET -13.907140 -6.093903 1.965100
										CHANNELS 3 Xrotation Yrotation Zrotation
										JOINT RightForeArm
										{
											OFFSET -34.140198 0.000000 0.000000
											CHANNELS 3 Xrotation Yrotation Zrotation
											JOINT RightHand
											{
												OFFSET -40.960209 0.000000 0.000000
												CHANNELS 3 Xrotation Yrotation Zrotation
												End Site
												{
													OFFSET 0 0 0
												}
											}
										}
									}
								}
							}
						}
					}
				}
			}
		}
	}
}
MOTION
Frames: 9
Frame Time: 0.03333333
-0.623457 110.975220 -2.074743 0.000000 0.000000 0.000000 -1.591845 -1.202353 -1.010919 -14.852813 2.621292 10.573545 27.654386 3.407430 1.118072 -8.600100 2.662875 -10.520245 1.117752 0.114711 -0.234556 0.000000 0.000000 0.000000 -1.485041 -1.078971 -0.914902 -19.051940 1.960625 -5.360722 30.633754 -1.467580 -1.650775 -7.215532 -0.467858 7.932278 2.387556 0.250916 0.860736 0.000000 0.000000 0.000000 -1.588280 -2.016533 -1.137162 1.372497 -0.782199 -0.019698 -1.685026 -0.246079 0.650367 0.884374 0.351289 0.001426 0.000000 0.000000 0.000000 -2.011337 -0.110345 0.716464 -0.941648 -0.282967 -0.673527 5.098125 -1.887593 2.414563 0.000000 0.000000 0.000000 -2.314002 -0.022035 0.409102 1.172820 -11.008970 -9.859672 -3.062488 0.618263 -1.709066 21.145094 -21.754707 -65.088506 -1.112535 -17.663923 1.299089 0.000000 0.000000 0.000000 -1.745179 -0.023185 0.738979 1.671481 5.825773 10.713116 -1.835700 2.205362 -1.634775 6.159937 24.124990 65.968330 0.509956 15.915625 0.683126 0.000000 0.000000 0.000000 
-0.501255 111.114784 -2.039923 0.000000 0.000000 0.000000 -1.586572 -1.203196 -0.992127 -14.869052 2.490031 10.521322 27.474016 3.535624 1.083950 -8.500030 2.690147 -10.307877 1.030242 0.139853 -0.224916 0.000000 0.000000 0.000000 -1.466035 -1.129238 -0.914074 -18.741479 2.063448 -5.352366 30.464153 -1.518646 -1.709899 -7.160135 -0.615346 7.504241 2.204118 0.221904 0.950531 0.000000 0.000000 0.000000 -1.518619 -2.090710 -1.213310 1.224552 -0.746263 0.045719 -1.631224 -0.240929 0.640732 0.965043 0.464026 0.059437 0.000000 0.000000 0.000000 -2.015597 -0.113181 0.713040 -0.937235 -0.245910 -0.685429 5.039849 -1.933903 2.363554 0.000000 0.000000 0.000000 -2.286628 -0.006372 0.410870 1.172343 -11.060054 -9.983357 -3.120404 0.690962 -1.705808 21.125826 -21.854186 -65.126837 -1.107646 -17.722565 1.153337 0.000000 0.000000 0.000000 -1.710048 -0.016911 0.727640 1.699282 5.988259 10.770154 -1.764862 2.391565 -1.650222 6.315814 24.189071 65.825484 0.560505 15.813561 0.694911 0.000000 0.000000 0.000000 
-0.401488 111.251343 -1.997873 0.000000 0.000000 0.000000 -1.633775 -1.281410 -1.001309 -14.874494 2.373162 10.434106 27.264011 3.800784 1.127447 -8.318684 2.586211 -10.080447 1.014222 0.178426 -0.185526 0.000000 0.000000 0.000000 -1.450393 -1.120616 -0.981794 -18.379115 2.165644 -5.314893 30.420440 -1.562500 -1.821959 -7.596408 -0.733369 6.891211 2.073358 0.228763 0.931270 0.000000 0.000000 0.000000 -1.445577 -2.214705 -1.337938 1.184120 -0.677934 0.184722 -1.536672 -0.225622 0.613774 1.016184 0.472551 0.056314 0.000000 0.000000 0.000000 -1.992907 -0.111167 0.689632 -0.949187 -0.180594 -0.757950 4.797815 -2.015552 2.385192 0.000000 0.000000 0.000000 -2.223192 0.011025 0.391430 1.159753 -11.178007 -10.162183 -3.203539 0.914523 -1.679158 21.036462 -21.856219 -65.141959 -1.021455 -17.906683 1.027750 0.000000 0.000000 0.000000 -1.646045 -0.010557 0.687187 1.756261 6.164428 10.818437 -1.629881 2.555518 -1.675038 6.597636 24.455646 65.429189 0.629454 15.894718 0.692356 0.000000 0.000000 0.000000 
-0.298644 111.283745 -2.000654 0.000000 0.000000 0.000000 -1.698710 -1.453538 -1.017219 -14.842838 2.320708 10.282764 27.131012 4.184305 1.244790 -8.189231 2.414830 -9.875918 1.016560 0.227934 -0.117183 0.000000 0.000000 0.000000 -1.411175 -1.103552 -1.043444 -18.206849 2.202551 -5.329372 30.559308 -1.576778 -1.904423 -8.124739 -0.825113 6.318743 1.887684 0.252787 0.812653 0.000000 0.000000 0.000000 -1.374150 -2.406992 -1.435840 1.256509 -0.597435 0.340914 -1.398593 -0.195607 0.575009 0.987350 0.444657 -0.008853 0.000000 0.000000 0.000000 -1.924214 -0.098685 0.655743 -0.985903 -0.100030 -0.861702 4.368604 -2.131579 2.504700 0.000000 0.000000 0.000000 -2.121863 0.034081 0.358976 1.128251 -11.341026 -10.354383 -3.338347 1.158653 -1.622396 20.922524 -21.850465 -65.025327 -0.890087 -18.162924 0.898445 0.000000 0.000000 0.000000 -1.555261 -0.000088 0.624271 1.836558 6.339639 10.826774 -1.440930 2.657121 -1.675806 6.907639 24.899593 64.829157 0.698562 16.134783 0.685730 0.000000 0.000000 0.000000 
-0.146493 111.234360 -2.071424 0.000000 0.000000 0.000000 -1.707523 -1.722264 -1.023089 -14.888013 2.349521 10.062687 27.178093 4.676687 1.403849 -8.213810 2.239669 -9.734294 0.979404 0.274074 -0.020432 0.000000 0.000000 0.000000 -1.324277 -1.169688 -1.076632 -18.348525 2.123960 -5.410547 30.577012 -1.447910 -1.947409 -8.325120 -0.886322 6.172223 1.222838 0.260910 0.600544 0.000000 0.000000 0.000000 -1.276756 -2.648286 -1.503322 1.429269 -0.526758 0.452603 -1.210969 -0.156156 0.530612 0.905932 0.390917 -0.049175 0.000000 0.000000 0.000000 -1.792086 -0.071039 0.618837 -1.047115 -0.028391 -0.947174 3.744024 -2.267190 2.759496 0.000000 0.000000 0.000000 -1.971952 0.068877 0.326764 1.076034 -11.551070 -10.510294 -3.414052 1.293921 -1.735755 20.779676 -21.925822 -64.736082 -0.745417 -18.514980 0.755580 0.000000 0.000000 0.000000 -1.432693 0.017791 0.555850 1.931505 6.526373 10.798024 -1.241822 2.685702 -1.690356 7.142397 25.493083 64.124138 0.738520 16.471336 0.675482 0.000000 0.000000 0.000000 
0.023335 111.130150 -2.176233 0.000000 0.000000 0.000000 -1.606302 -2.049816 -1.033291 -15.122216 2.435400 9.841224 27.488972 5.224592 1.566686 -8.405315 2.096866 -9.735471 0.839698 0.296061 0.107710 0.000000 0.000000 0.000000 -1.151807 -1.375229 -1.106751 -18.830215 1.973494 -5.469817 30.254265 -1.192618 -1.959290 -8.127608 -0.955544 6.483357 0.306413 0.240780 0.365332 0.000000 0.000000 0.000000 -1.129986 -2.955573 -1.612749 1.667351 -0.482795 0.485397 -0.984066 -0.110029 0.479515 0.860044 0.321709 -0.002167 0.000000 0.000000 0.000000 -1.579342 -0.025922 0.578105 -1.126015 0.016143 -0.973722 2.930647 -2.445574 3.173999 0.000000 0.000000 0.000000 -1.777334 0.116988 0.298972 1.004680 -11.831504 -10.590172 -3.340713 1.294049 -1.967973 20.563948 -22.049220 -64.286041 -0.618803 -18.936136 0.599439 0.000000 0.000000 0.000000 -1.267481 0.047427 0.489022 2.025926 6.771741 10.733527 -1.048399 2.679850 -1.695871 7.227925 26.222519 63.415848 0.739242 16.816095 0.667400 0.000000 0.000000 0.000000 
0.170015 111.040764 -2.401209 0.000000 0.000000 0.000000 -1.379616 -2.508958 -1.122623 -15.572367 2.516494 9.725932 28.123232 5.819448 1.713674 -8.739153 2.083838 -9.925238 0.648516 0.279535 0.249888 0.000000 0.000000 0.000000 -0.874358 -1.767502 -1.200988 -19.580458 1.774304 -5.408914 29.584435 -0.938785 -1.944149 -7.612986 -1.086690 6.868209 -0.325460 0.202208 0.221786 0.000000 0.000000 0.000000 -0.889955 -3.349123 -1.810036 1.941219 -0.454292 0.418821 -0.714016 -0.059224 0.419138 0.874786 0.334916 0.066729 0.000000 0.000000 0.000000 -1.280569 0.032158 0.522978 -1.212857 0.011481 -0.904924 1.965795 -2.694855 3.785348 0.000000 0.000000 0.000000 -1.532137 0.171628 0.263291 0.924284 -12.215020 -10.568926 -3.077799 1.167922 -2.162498 20.103490 -22.087478 -63.758983 -0.492885 -19.378971 0.462487 0.000000 0.000000 0.000000 -1.049906 0.088018 0.424299 2.114452 7.108318 10.665332 -0.902135 2.608061 -1.667075 7.135580 27.086865 62.786651 0.704124 17.110925 0.649381 0.000000 0.000000 0.000000 
0.291134 111.019745 -2.808832 0.000000 0.000000 0.000000 -1.021272 -3.091624 -1.367972 -16.264837 2.491864 9.829508 29.091207 6.443500 1.800387 -9.257547 2.281541 -10.314231 0.453144 0.230384 0.396264 0.000000 0.000000 0.000000 -0.518509 -2.393615 -1.459698 -20.585681 1.604515 -5.111196 28.700523 -0.774361 -1.925399 -7.013192 -1.287006 7.122956 -0.307994 0.151193 0.244923 0.000000 0.000000 0.000000 -0.534036 -3.921038 -2.165430 2.254607 -0.423360 0.268122 -0.402909 -0.012536 0.343849 0.934372 0.366470 0.101269 0.000000 0.000000 0.000000 -0.911861 0.096777 0.432732 -1.276278 -0.048004 -0.708803 0.890079 -3.028441 4.600135 0.000000 0.000000 0.000000 -1.225090 0.229849 0.197882 0.851668 -12.729646 -10.452391 -2.748476 1.073702 -2.305442 19.264656 -21.810507 -63.257496 -0.380211 -19.846829 0.357224 0.000000 0.000000 0.000000 -0.767980 0.138057 0.347959 2.191632 7.563434 10.605589 -0.814570 2.547190 -1.641218 6.876675 28.082982 62.256402 0.637209 17.451897 0.625875 0.000000 0.000000 0.000000 
0.365560 110.948799 -3.290239 0.000000 0.000000 0.000000 -0.570726 -3.896229 -1.860487 -17.139513 2.271363 10.262933 30.477021 7.008372 1.798212 -9.981442 2.719788 -10.945639 0.256829 0.158085 0.538054 0.000000 0.000000 0.000000 -0.105426 -3.296200 -1.966002 -21.897394 1.574621 -4.489011 28.135747 -0.681116 -1.900775 -6.400582 -1.421557 7.245430 0.150020 0.102543 0.421945 0.000000 0.000000 0.000000 -0.083987 -4.756346 -2.696089 2.616485 -0.376486 0.076617 -0.055378 0.033721 0.242209 0.985204 0.334561 0.140080 0.000000 0.000000 0.000000 -0.502051 0.161538 0.290903 -1.293535 -0.156298 -0.384553 -0.226668 -3.427425 5.593392 0.000000 0.000000 0.000000 -0.858838 0.282804 0.080382 0.797360 -13.365772 -10.286779 -2.508141 1.098660 -2.404264 18.153980 -21.119486 -62.806492 -0.287125 -20.477827 0.280020 0.000000 0.000000 0.000000 -0.421701 0.192571 0.233983 2.260439 8.160207 10.558896 -0.774922 2.505107 -1.643575 6.471474 29.153621 61.746706 0.559152 17.972137 0.606669 0.000000 0.000000 0.000000 
